<svg width="2044" height="825" xmlns="http://www.w3.org/2000/svg" xmlns:xlink="http://www.w3.org/1999/xlink" xml:space="preserve" overflow="hidden"><g transform="translate(-531 -522)"><g><path d="M144.159 120.064C136.796 118.561 126.504 113.3 119.81 107.788 111.024 100.522 103.828 91.0843 89.7701 68.4511 83.2434 57.928 76.8003 50.2447 72.9514 48.3236 71.6962 47.6555 68.9349 47.0708 66.9266 47.0708 59.6469 47.0708 52.367 53.7523 42.5772 69.6203 36.3852 79.5588 32.9545 82.983 27.9338 84.57 13.8764 88.7457-0.599561 78.8073-0.599561 64.9435-0.515695 51.9983 9.02311 34.7938 24.3359 20.2619 32.1177 12.7455 40.4016 7.65108 49.3549 4.72785 54.7101 2.97392 57.555 2.55643 65.0857 2.55643 75.8799 2.47298 81.9883 3.89261 91.862 8.65322 107.593 16.1696 118.973 27.862 129.516 47.4886 135.541 58.5963 140.31 65.6115 144.996 69.9544 151.606 76.1346 156.376 77.5545 162.149 75.1325 168.844 72.293 173.864 66.7808 188.089 46.2358 205.744 20.7631 215.367 10.7412 228.253 4.39381 250.344-6.46333 275.111 0.635597 294.19 23.2686 296.867 26.5258 302.473 33.8754 306.657 39.7213 310.841 45.5675 315.862 51.9149 317.87 53.7523 324.313 59.6819 329.501 57.928 337.199 47.0708 347.323 32.7895 357.114 24.605 368.242 21.1806 375.02 19.0092 387.069 18.7588 392.341 20.5962 405.98 25.44 418.113 36.3808 424.389 49.5763 427.066 55.1719 427.401 56.5918 427.401 62.5214 427.401 70.3721 425.728 74.2138 420.372 79.0579 415.77 83.1501 411.67 84.8203 405.645 84.9041 397.947 85.0709 392.257 81.2293 384.81 71.1237 383.137 68.7017 381.965 67.9501 380.124 67.9501 378.116 67.9501 376.861 69.0357 372.259 74.8819 369.246 78.7238 364.142 84.4028 360.795 87.493 340.462 106.702 308.582 106.702 287.328 87.493 285.404 85.8227 280.383 79.6425 276.199 73.8798 261.472 53.6688 253.188 44.5654 249.507 44.5654 245.239 44.5654 238.713 51.8314 226.161 70.3721 212.104 91.2512 205.577 99.0182 195.62 106.618 178.633 119.48 161.815 123.906 144.159 120.064Z" fill="#EF4040" fill-rule="evenodd" fill-opacity="1" transform="matrix(-1 1.22465e-16 1.22465e-16 1 962 859)"/><path d="M144.159 120.064C136.796 118.561 126.504 113.3 119.81 107.788 111.024 100.522 103.828 91.0843 89.7701 68.4511 83.2434 57.928 76.8003 50.2447 72.9514 48.3236 71.6962 47.6555 68.9349 47.0708 66.9266 47.0708 59.6469 47.0708 52.367 53.7523 42.5772 69.6203 36.3852 79.5588 32.9545 82.983 27.9338 84.57 13.8764 88.7457-0.599561 78.8073-0.599561 64.9435-0.515695 51.9983 9.02311 34.7938 24.3359 20.2619 32.1177 12.7455 40.4016 7.65108 49.3549 4.72785 54.7101 2.97392 57.555 2.55643 65.0857 2.55643 75.8799 2.47298 81.9883 3.89261 91.862 8.65322 107.593 16.1696 118.973 27.862 129.516 47.4886 135.541 58.5963 140.31 65.6115 144.996 69.9544 151.606 76.1346 156.376 77.5545 162.149 75.1325 168.844 72.293 173.864 66.7808 188.089 46.2358 205.744 20.7631 215.367 10.7412 228.253 4.39381 250.344-6.46333 275.111 0.635597 294.19 23.2686 296.867 26.5258 302.473 33.8754 306.657 39.7213 310.841 45.5675 315.862 51.9149 317.87 53.7523 324.313 59.6819 329.501 57.928 337.199 47.0708 347.323 32.7895 357.114 24.605 368.242 21.1806 375.02 19.0092 387.069 18.7588 392.341 20.5962 405.98 25.44 418.113 36.3808 424.389 49.5763 427.066 55.1719 427.401 56.5918 427.401 62.5214 427.401 70.3721 425.728 74.2138 420.372 79.0579 415.77 83.1501 411.67 84.8203 405.645 84.9041 397.947 85.0709 392.257 81.2293 384.81 71.1237 383.137 68.7017 381.965 67.9501 380.124 67.9501 378.116 67.9501 376.861 69.0357 372.259 74.8819 369.246 78.7238 364.142 84.4028 360.795 87.493 340.462 106.702 308.582 106.702 287.328 87.493 285.404 85.8227 280.383 79.6425 276.199 73.8798 261.472 53.6688 253.188 44.5654 249.507 44.5654 245.239 44.5654 238.713 51.8314 226.161 70.3721 212.104 91.2512 205.577 99.0182 195.62 106.618 178.633 119.48 161.815 123.906 144.159 120.064Z" fill="#FFA732" fill-rule="evenodd" fill-opacity="1" transform="matrix(-1 1.22465e-16 1.22465e-16 1 962 732)"/><path d="M144.159 121.049C136.796 119.533 126.504 114.228 119.81 108.671 111.024 101.346 103.828 91.8309 89.7701 69.0121 83.2434 58.4028 76.8003 50.6565 72.9514 48.7197 71.6962 48.0461 68.9349 47.4567 66.9266 47.4567 59.6469 47.4567 52.367 54.1929 42.5772 70.191 36.3852 80.2109 32.9545 83.6632 27.9338 85.2632 13.8764 89.4732-0.599561 79.4532-0.599561 65.4758-0.515695 52.4246 9.02311 35.079 24.3359 20.428 32.1177 12.8499 40.4016 7.71379 49.3549 4.76661 54.7101 2.99829 57.555 2.57738 65.0857 2.57738 75.8799 2.49325 81.9883 3.92452 91.862 8.72415 107.593 16.3022 118.973 28.0904 129.516 47.8778 135.541 59.0766 140.31 66.1494 144.996 70.5278 151.606 76.7587 156.376 78.1902 162.149 75.7484 168.844 72.8856 173.864 67.3282 188.089 46.6148 205.744 20.9333 215.367 10.8292 228.253 4.42982 250.344-6.51631 275.111 0.640807 294.19 23.4593 296.867 26.7433 302.473 34.153 306.657 40.0469 310.841 45.941 315.862 52.3404 317.87 54.1929 324.313 60.1711 329.501 58.4028 337.199 47.4567 347.323 33.0583 357.114 24.8067 368.242 21.3542 375.02 19.165 387.069 18.9126 392.341 20.765 405.98 25.6485 418.113 36.6791 424.389 49.9827 427.066 55.6241 427.401 57.0557 427.401 63.0339 427.401 70.949 425.728 74.8221 420.372 79.7059 415.77 83.8317 411.67 85.5156 405.645 85.6 397.947 85.7683 392.257 81.8951 384.81 71.7067 383.137 69.2648 381.965 68.5071 380.124 68.5071 378.116 68.5071 376.861 69.6016 372.259 75.4957 369.246 79.3691 364.142 85.0947 360.795 88.2101 340.462 107.576 308.582 107.576 287.328 88.2101 285.404 86.5262 280.383 80.2953 276.199 74.4853 261.472 54.1087 253.188 44.9307 249.507 44.9307 245.239 44.9307 238.713 52.2563 226.161 70.949 212.104 91.9992 205.577 99.8298 195.62 107.492 178.633 120.459 161.815 124.922 144.159 121.049Z" fill="#C21292" fill-rule="evenodd" fill-opacity="1" transform="matrix(-1 1.22465e-16 1.22465e-16 1 962 985)"/><text fill="#000000" fill-opacity="1" font-family="Ubuntu Medium,Ubuntu Medium_MSFontService,sans-serif" font-style="normal" font-variant="normal" font-weight="500" font-stretch="normal" font-size="390" text-anchor="start" direction="ltr" writing-mode="lr-tb" unicode-bidi="normal" text-decoration="none" transform="matrix(1 0 0 1 1047.46 1033)">valleys</text></g></g></svg>